<svg width="231" height="44" viewBox="0 0 231 44" fill="none" xmlns="http://www.w3.org/2000/svg">
<path d="M69.494 12.748V16.31H62.058V20.158H67.622V23.616H62.058V31H57.612V12.748H69.494ZM74.0668 14.984C73.2868 14.984 72.6454 14.7587 72.1428 14.308C71.6574 13.84 71.4148 13.268 71.4148 12.592C71.4148 11.8987 71.6574 11.3267 72.1428 10.876C72.6454 10.408 73.2868 10.174 74.0668 10.174C74.8294 10.174 75.4534 10.408 75.9388 10.876C76.4414 11.3267 76.6928 11.8987 76.6928 12.592C76.6928 13.268 76.4414 13.84 75.9388 14.308C75.4534 14.7587 74.8294 14.984 74.0668 14.984ZM76.2768 16.492V31H71.8308V16.492H76.2768ZM88.3387 16.336C90.0374 16.336 91.3894 16.8907 92.3947 18C93.4174 19.092 93.9287 20.6 93.9287 22.524V31H89.5087V23.122C89.5087 22.1513 89.2574 21.3973 88.7547 20.86C88.2521 20.3227 87.5761 20.054 86.7267 20.054C85.8774 20.054 85.2014 20.3227 84.6987 20.86C84.1961 21.3973 83.9447 22.1513 83.9447 23.122V31H79.4987V16.492H83.9447V18.416C84.3954 17.7747 85.0021 17.272 85.7647 16.908C86.5274 16.5267 87.3854 16.336 88.3387 16.336ZM96.1343 23.72C96.1343 22.2293 96.4116 20.9207 96.9663 19.794C97.5383 18.6673 98.3096 17.8007 99.2803 17.194C100.251 16.5873 101.334 16.284 102.53 16.284C103.484 16.284 104.35 16.4833 105.13 16.882C105.928 17.2807 106.552 17.818 107.002 18.494V11.76H111.448V31H107.002V28.92C106.586 29.6133 105.988 30.168 105.208 30.584C104.446 31 103.553 31.208 102.53 31.208C101.334 31.208 100.251 30.9047 99.2803 30.298C98.3096 29.674 97.5383 28.7987 96.9663 27.672C96.4116 26.528 96.1343 25.2107 96.1343 23.72ZM107.002 23.746C107.002 22.6367 106.69 21.7613 106.066 21.12C105.46 20.4787 104.714 20.158 103.83 20.158C102.946 20.158 102.192 20.4787 101.568 21.12C100.962 21.744 100.658 22.6107 100.658 23.72C100.658 24.8293 100.962 25.7133 101.568 26.372C102.192 27.0133 102.946 27.334 103.83 27.334C104.714 27.334 105.46 27.0133 106.066 26.372C106.69 25.7307 107.002 24.8553 107.002 23.746ZM131.537 27.776H124.725L123.633 31H118.979L125.583 12.748H130.731L137.335 31H132.629L131.537 27.776ZM130.393 24.344L128.131 17.662L125.895 24.344H130.393ZM144.1 21.848C144.1 20.0453 144.49 18.442 145.27 17.038C146.05 15.6167 147.134 14.516 148.52 13.736C149.924 12.9387 151.51 12.54 153.278 12.54C155.445 12.54 157.3 13.112 158.842 14.256C160.385 15.4 161.416 16.96 161.936 18.936H157.048C156.684 18.1733 156.164 17.5927 155.488 17.194C154.83 16.7953 154.076 16.596 153.226 16.596C151.857 16.596 150.748 17.0727 149.898 18.026C149.049 18.9793 148.624 20.2533 148.624 21.848C148.624 23.4427 149.049 24.7167 149.898 25.67C150.748 26.6233 151.857 27.1 153.226 27.1C154.076 27.1 154.83 26.9007 155.488 26.502C156.164 26.1033 156.684 25.5227 157.048 24.76H161.936C161.416 26.736 160.385 28.296 158.842 29.44C157.3 30.5667 155.445 31.13 153.278 31.13C151.51 31.13 149.924 30.74 148.52 29.96C147.134 29.1627 146.05 28.062 145.27 26.658C144.49 25.254 144.1 23.6507 144.1 21.848ZM171.263 31.208C169.842 31.208 168.559 30.9047 167.415 30.298C166.288 29.6913 165.396 28.8247 164.737 27.698C164.096 26.5713 163.775 25.254 163.775 23.746C163.775 22.2553 164.104 20.9467 164.763 19.82C165.422 18.676 166.323 17.8007 167.467 17.194C168.611 16.5873 169.894 16.284 171.315 16.284C172.736 16.284 174.019 16.5873 175.163 17.194C176.307 17.8007 177.208 18.676 177.867 19.82C178.526 20.9467 178.855 22.2553 178.855 23.746C178.855 25.2367 178.517 26.554 177.841 27.698C177.182 28.8247 176.272 29.6913 175.111 30.298C173.967 30.9047 172.684 31.208 171.263 31.208ZM171.263 27.36C172.112 27.36 172.832 27.048 173.421 26.424C174.028 25.8 174.331 24.9073 174.331 23.746C174.331 22.5847 174.036 21.692 173.447 21.068C172.875 20.444 172.164 20.132 171.315 20.132C170.448 20.132 169.729 20.444 169.157 21.068C168.585 21.6747 168.299 22.5673 168.299 23.746C168.299 24.9073 168.576 25.8 169.131 26.424C169.703 27.048 170.414 27.36 171.263 27.36ZM180.33 23.72C180.33 22.2293 180.607 20.9207 181.162 19.794C181.734 18.6673 182.505 17.8007 183.476 17.194C184.446 16.5873 185.53 16.284 186.726 16.284C187.748 16.284 188.641 16.492 189.404 16.908C190.184 17.324 190.782 17.87 191.198 18.546V16.492H195.644V31H191.198V28.946C190.764 29.622 190.158 30.168 189.378 30.584C188.615 31 187.722 31.208 186.7 31.208C185.521 31.208 184.446 30.9047 183.476 30.298C182.505 29.674 181.734 28.7987 181.162 27.672C180.607 26.528 180.33 25.2107 180.33 23.72ZM191.198 23.746C191.198 22.6367 190.886 21.7613 190.262 21.12C189.655 20.4787 188.91 20.158 188.026 20.158C187.142 20.158 186.388 20.4787 185.764 21.12C185.157 21.744 184.854 22.6107 184.854 23.72C184.854 24.8293 185.157 25.7133 185.764 26.372C186.388 27.0133 187.142 27.334 188.026 27.334C188.91 27.334 189.655 27.0133 190.262 26.372C190.886 25.7307 191.198 24.8553 191.198 23.746ZM197.976 23.746C197.976 22.238 198.279 20.9207 198.886 19.794C199.51 18.6673 200.368 17.8007 201.46 17.194C202.569 16.5873 203.835 16.284 205.256 16.284C207.076 16.284 208.593 16.7607 209.806 17.714C211.037 18.6673 211.843 20.0107 212.224 21.744H207.492C207.093 20.6347 206.322 20.08 205.178 20.08C204.363 20.08 203.713 20.4007 203.228 21.042C202.743 21.666 202.5 22.5673 202.5 23.746C202.5 24.9247 202.743 25.8347 203.228 26.476C203.713 27.1 204.363 27.412 205.178 27.412C206.322 27.412 207.093 26.8573 207.492 25.748H212.224C211.843 27.4467 211.037 28.7813 209.806 29.752C208.575 30.7227 207.059 31.208 205.256 31.208C203.835 31.208 202.569 30.9047 201.46 30.298C200.368 29.6913 199.51 28.8247 198.886 27.698C198.279 26.5713 197.976 25.254 197.976 23.746ZM223.52 16.336C225.184 16.336 226.519 16.8907 227.524 18C228.53 19.092 229.032 20.6 229.032 22.524V31H224.612V23.122C224.612 22.1513 224.361 21.3973 223.858 20.86C223.356 20.3227 222.68 20.054 221.83 20.054C220.981 20.054 220.305 20.3227 219.802 20.86C219.3 21.3973 219.048 22.1513 219.048 23.122V31H214.602V11.76H219.048V18.442C219.499 17.8007 220.114 17.2893 220.894 16.908C221.674 16.5267 222.55 16.336 223.52 16.336Z" fill="#4318FF"/>
<rect width="44" height="44" rx="10" fill="#4318FF"/>
<path d="M22.0005 7.69994C16.2805 7.69994 11.1431 11.0896 8.86565 16.3329C8.75973 16.5977 8.86565 16.9155 9.13047 17.0214C9.39528 17.1273 9.71306 17.0214 9.81899 16.7566C10.9842 14.1085 12.9438 11.937 15.3271 10.5599C14.5857 11.3014 13.9501 12.2018 13.4734 13.1551C13.2616 13.5788 13.3145 14.1085 13.6323 14.4262C14.109 14.9559 15.0094 14.691 15.2742 14.4262C15.486 14.2144 15.4331 13.9496 15.2742 13.6848C15.0094 13.261 14.4268 13.6848 14.4268 13.6848C14.4268 13.6848 15.3801 10.8777 19.0345 9.07697C19.6701 8.91808 20.2527 8.86512 20.8882 8.81216C20.3586 9.34179 19.776 9.81845 19.0875 10.2422C19.0875 10.2422 16.6512 11.7251 16.2805 12.0429C16.0686 12.2548 16.0686 12.5196 16.2275 12.7844C16.4923 13.1551 16.8631 12.9433 16.969 12.8373C17.3397 12.5725 19.6701 11.1425 19.6701 11.1425C21.0471 10.5599 22.4771 8.81216 22.4771 8.81216C24.8605 8.91808 27.0849 9.6066 28.9916 10.8248L27.6675 12.1488C26.8731 12.9433 26.1845 13.4729 25.496 13.8436C23.7482 14.8499 22.3712 16.3329 21.4708 18.1336C21.259 18.5573 21.3119 19.087 21.6297 19.4047C22.1594 19.8814 23.0068 19.6696 23.2716 19.4047L24.1719 18.5044C24.3838 18.2925 24.3838 17.9747 24.1719 17.7629C23.9601 17.551 23.6423 17.551 23.4305 17.7629L22.4242 18.6633C22.4242 18.6633 23.2716 16.227 26.0257 14.744C26.8201 14.3203 27.5616 13.6848 28.409 12.8373L29.892 11.3544C30.1568 11.5662 30.4216 11.7781 30.6864 11.9899L29.0445 13.6318C28.409 14.2144 27.8264 14.744 27.1379 15.1677L25.6019 16.0681C25.3371 16.227 25.2312 16.5448 25.3901 16.8096C25.602 17.1803 26.0257 17.0744 26.1316 17.0214L27.6675 16.121C28.462 15.6444 29.1505 15.0618 29.786 14.4262L31.4808 12.7314C31.8516 13.1022 32.1694 13.4729 32.4871 13.8436L27.8264 18.5044C26.6612 19.6696 25.7608 20.9936 25.1782 22.4236C24.5427 23.9066 23.6953 25.3366 22.5831 26.6607C22.3712 26.8725 22.4242 27.1903 22.636 27.4022C22.9008 27.667 23.2716 27.4551 23.3775 27.3492C24.5427 25.9722 25.4431 24.4362 26.1316 22.8473C26.6612 21.5233 27.4557 20.3581 28.5679 19.2459L33.1227 14.691C33.7582 15.6444 34.2349 16.6507 34.6057 17.7099L32.2223 20.1462C31.216 20.9407 30.3157 22.8473 30.3157 22.8473C29.6271 24.0125 28.6208 25.0188 27.4557 25.7073C26.1845 26.5018 24.9664 27.4022 23.9601 28.4085L22.4771 29.8914C22.2653 30.1033 21.9475 30.1033 21.7357 29.8914C21.6297 29.7855 21.4708 29.4677 21.7357 29.1499C21.9475 28.9381 21.9475 28.6203 21.7357 28.4085C21.5238 28.1966 21.1531 28.1966 20.9942 28.4085C20.0938 29.4677 20.6764 30.3151 20.9942 30.6329C21.8416 31.4803 22.9008 30.9507 23.2186 30.6329L24.7016 29.1499C25.6549 28.1966 26.7671 27.2962 27.9853 26.5547C29.3094 25.7603 30.3686 24.6481 31.1631 23.377C31.1631 23.377 32.0105 21.6292 32.9638 20.8877L34.9234 18.8751C35.1353 19.8814 35.2412 20.9407 35.2412 21.9999C35.2412 28.3025 30.7923 33.5988 24.9134 34.9229C25.1782 34.711 25.4431 34.5522 25.7079 34.3933C25.9727 34.2344 26.0257 33.9166 25.8668 33.6518C25.7079 33.387 25.3901 33.334 25.1253 33.4929C24.119 34.0225 22.9008 35.2407 22.9008 35.2407C22.5831 35.2407 21.6297 35.2936 21.4708 35.2407L22.2123 34.4992C22.9008 33.8107 23.4834 33.387 24.119 33.0162L25.6549 32.1159C26.5023 31.6392 27.1908 31.0566 27.7734 30.421C27.7734 30.421 28.7268 29.4677 28.7797 29.5207C28.7797 29.5207 27.7734 31.2685 27.1379 31.957C26.926 32.1688 26.926 32.4866 27.1379 32.6985C27.3497 32.9103 27.6675 32.9103 27.8794 32.6985C28.6208 31.904 29.2564 31.0566 29.7331 30.0503C29.9449 29.6266 29.839 29.097 29.5742 28.7792C28.9916 28.3025 28.1971 28.5144 27.9323 28.7792L27.0319 29.6796C26.5023 30.2622 25.8668 30.7388 25.1253 31.1625L23.5894 32.0629C22.8479 32.4866 22.2123 33.0162 21.4708 33.7577L20.0938 35.0818C17.7105 34.764 15.539 33.7577 13.7382 32.3277L15.2742 30.7918C16.0686 29.9973 16.7571 29.4677 17.4457 29.097C19.1934 28.0907 20.5705 26.6077 21.4708 24.807C21.6827 24.3833 21.6827 23.8536 21.259 23.4829C21.0471 23.271 20.1468 23.0062 19.6701 23.4829L18.7697 24.3833C18.2401 24.9659 17.6045 25.4425 16.8631 25.8662L15.3271 26.7666C14.4797 27.2433 13.7912 27.8259 13.2086 28.4614L11.5668 30.1033C11.302 29.7325 11.0371 29.4147 10.8253 29.044L15.3801 24.4892C16.5982 23.2181 17.4457 21.894 18.0282 20.517C18.8227 18.5573 20.0408 16.7566 21.6297 15.1677L22.2123 14.5851C22.5301 14.2673 22.9538 13.1022 22.2123 12.3607C21.5768 11.7251 20.6234 11.7251 19.9879 12.3607L18.5049 13.8436C17.5516 14.797 16.4394 15.6973 15.2212 16.4388C13.8442 17.2862 12.7849 18.3455 12.0434 19.6166C12.0434 19.6166 11.0901 21.6292 10.2957 22.1059L8.97158 23.4299C8.81269 23.0062 8.75973 22.5296 8.75973 21.9999C8.75973 21.6822 8.54788 21.4703 8.2301 21.4703C7.91232 21.4703 7.70047 21.6822 7.70047 21.9999C7.70047 29.8914 14.109 36.2999 22.0005 36.2999C29.8919 36.2999 36.3005 29.8914 36.3005 21.9999C36.3005 14.1085 29.8919 7.69994 22.0005 7.69994ZM9.07751 24.807L10.9312 22.9533C12.0434 22.0529 12.8908 20.2522 12.8908 20.2522C13.5794 19.087 14.5327 18.1336 15.7508 17.3922C17.022 16.5977 18.2401 15.6973 19.2464 14.691L20.7294 13.2081C20.9412 12.9962 21.206 12.9962 21.4708 13.2081C21.7886 13.4729 21.5768 13.8436 21.4708 13.9496L20.8882 14.5322C19.1934 16.227 17.9223 18.1336 17.0749 20.1992C16.5453 21.4703 15.7508 22.6885 14.6386 23.8536L10.2957 28.1966C9.71306 27.0844 9.28936 25.9722 9.07751 24.807ZM12.2553 30.9507L13.9501 29.2559C14.4797 28.6733 15.1153 28.1966 15.8568 27.7729L17.3927 26.8725C18.2401 26.3959 18.9286 25.8133 19.5112 25.1777C19.5112 25.1777 20.4645 24.2773 20.5175 24.2773C20.5175 24.2773 18.452 27.3492 16.916 28.1966C16.1216 28.6203 15.3801 29.2559 14.5327 30.1033L12.9438 31.6922C12.732 31.4273 12.4671 31.2155 12.2553 30.9507Z" fill="white"/>
<path d="M7.86132 18.6612C7.81028 18.8258 7.75924 19.0232 7.70819 19.2207C7.65715 19.3853 7.86132 19.5827 8.11654 19.6156C8.16759 19.6156 8.62698 19.6485 8.72907 19.3523C8.78012 19.1878 8.83116 19.0232 8.8822 18.8587C8.93325 18.6942 8.78012 18.4967 8.5249 18.4638C8.21863 18.3651 7.91237 18.4638 7.86132 18.6612Z" fill="white"/>
</svg>
