<svg width="56" height="56" viewBox="0 0 56 56" fill="none" xmlns="http://www.w3.org/2000/svg">
<circle cx="28" cy="28" r="28" fill="#F4F7FE"/>
<path d="M38.9952 23.7412C38.9952 23.7388 38.9955 23.7364 38.9955 23.734C38.9955 20.8417 36.6508 18.497 33.7585 18.497C30.8661 18.497 28.5215 20.8416 28.5215 23.734C28.5215 26.6264 30.8664 28.971 33.7585 28.971C34.3529 28.971 34.9219 28.8674 35.4543 28.6848C34.2761 35.4441 29.0052 39.8031 33.8913 36.2155C39.3093 32.2373 39.0013 23.8938 38.9952 23.7412Z" fill="#4318FF"/>
<path d="M22.237 28.971C22.8314 28.971 23.4004 28.8674 23.9331 28.6848C22.7546 35.444 17.4837 39.803 22.3698 36.2155C27.7878 32.2373 27.4798 23.8938 27.4737 23.7412C27.4737 23.7388 27.474 23.7364 27.474 23.734C27.474 20.8417 25.1294 18.497 22.237 18.497C19.3446 18.497 17 20.8416 17 23.734C17 26.6264 19.3449 28.971 22.237 28.971Z" fill="#4318FF"/>
</svg>
